<svg xmlns="http://www.w3.org/2000/svg" width="500" height="400" fill="#fff">
  <g transform="rotate(100.65475463867188 231.9705352783203,207.12522888183594)">
   <path d="m222.25031,176.50201c-7.02239,6.86008 -5.38921,8.21661 -5.38921,8.21661l8.66386,20.99246l21.25989,-0.48322c0,0 1.97254,0.47953 6.74204,-9.52518c17.21337,-39.42126 17.21337,-53.56194 17.21337,-53.56194c0,0 -22.43843,8.91469 -48.48996,34.36127m207.61639,76.53432c0,0 -56.0177,8.98201 -139.85567,12.1792c-29.2727,79.56736 -57.10864,131.03688 -57.10864,131.03688c0,0 -27.55652,-53.61082 -56.22427,-130.98432c-85.36694,-3.25621 -142.60376,-12.89666 -142.60376,-12.89666c0,0 43.73706,-41.09502 108.40571,-92.14495c-22.56938,-79.50096 -33.24267,-140.77416 -33.24267,-140.77416l71.03722,50.6414c0,0 6.65905,25.70295 13.36328,50.03092c85.65743,-63.66625 161.01689,-102.1266 161.01689,-102.1266c0,0 -12.1165,83.37135 -43.36358,184.35629c26.32542,-1.64885 45.84885,-3.34566 45.84885,-3.34566l72.72665,54.02764z" id="path" xmlns="http://www.w3.org/2000/svg"/>
  </g>
</svg>